<svg xmlns="http://www.w3.org/2000/svg" viewBox="0 0 67 67.11"><g id="Layer_2" data-name="Layer 2"><g id="Art_3_pt" data-name="Art 3 pt"><path d="M65.25,0H1.75A1.75,1.75,0,0,0,0,1.75V65.36a1.75,1.75,0,0,0,1.75,1.75h63.5A1.75,1.75,0,0,0,67,65.36V1.75A1.75,1.75,0,0,0,65.25,0ZM63.5,3.5V41.25H3.5V3.5ZM3.5,63.61V44.75h60V63.61Z"/><path d="M22.18,31.93A9.64,9.64,0,0,0,31.65,24H44.56v4.75h3.5V24H51v4.75h3.5V20.48H31.63a9.63,9.63,0,1,0-9.45,11.45Zm0-15.79a6.15,6.15,0,1,1-6.13,6.15A6.15,6.15,0,0,1,22.18,16.14Z"/><path d="M17.9,49a5.3,5.3,0,1,0,5.29,5.3A5.31,5.31,0,0,0,17.9,49Zm0,7.09a1.8,1.8,0,1,1,1.79-1.79A1.8,1.8,0,0,1,17.9,56.05Z"/><path d="M33.5,49a5.3,5.3,0,1,0,5.29,5.3A5.3,5.3,0,0,0,33.5,49Zm0,7.09a1.8,1.8,0,1,1,1.79-1.79A1.79,1.79,0,0,1,33.5,56.05Z"/><path d="M49.1,49a5.3,5.3,0,1,0,5.3,5.3A5.3,5.3,0,0,0,49.1,49Zm0,7.09a1.8,1.8,0,1,1,1.8-1.79A1.79,1.79,0,0,1,49.1,56.05Z"/></g></g></svg>