<svg width="61" height="73" viewBox="0 0 61 73" fill="none" xmlns="http://www.w3.org/2000/svg">
<path d="M59.9102 14.82L44.3 0.460006C43.9788 0.163334 43.5573 -0.000974932 43.12 5.71297e-06H19.42C19.19 -0.000582655 18.9622 0.0442807 18.7496 0.132018C18.537 0.219755 18.3439 0.348636 18.1813 0.511256C18.0186 0.673876 17.8898 0.867028 17.802 1.07961C17.7143 1.2922 17.6694 1.52003 17.67 1.75V8.42H11.33C11.1 8.41942 10.8722 8.46428 10.6596 8.55202C10.447 8.63976 10.2539 8.76864 10.0913 8.93126C9.92864 9.09388 9.79976 9.28703 9.71202 9.49961C9.62428 9.7122 9.57942 9.94003 9.58001 10.17V17.58H1.75001C1.52003 17.5794 1.2922 17.6243 1.07961 17.712C0.867029 17.7998 0.673877 17.9286 0.511257 18.0913C0.348637 18.2539 0.219756 18.447 0.132019 18.6596C0.0442817 18.8722 -0.000582656 19.1 5.71285e-06 19.33V70.4401C-0.000582656 70.6701 0.0442817 70.8979 0.132019 71.1105C0.219756 71.3231 0.348637 71.5162 0.511257 71.6789C0.673877 71.8415 0.867029 71.9704 1.07961 72.0581C1.2922 72.1458 1.52003 72.1907 1.75001 72.1901H41.06C41.29 72.1907 41.5178 72.1458 41.7304 72.0581C41.943 71.9704 42.1361 71.8415 42.2988 71.6789C42.4614 71.5162 42.5903 71.3231 42.678 71.1105C42.7657 70.8979 42.8106 70.6701 42.81 70.4401V63.03H50.64C50.87 63.0306 51.0978 62.9857 51.3104 62.898C51.523 62.8103 51.7161 62.6814 51.8788 62.5188C52.0414 62.3561 52.1703 62.163 52.258 61.9504C52.3457 61.7378 52.3906 61.51 52.39 61.28V54.61H58.7302C58.9602 54.6106 59.188 54.5657 59.4006 54.478C59.6132 54.3903 59.8063 54.2614 59.969 54.0988C60.1316 53.9361 60.2605 53.743 60.3482 53.5304C60.4359 53.3178 60.4808 53.09 60.4802 52.86V16.11C60.4795 15.8673 60.4284 15.6273 60.3303 15.4053C60.2322 15.1833 60.0892 14.984 59.9102 14.82ZM39.31 68.7001H3.50001V21.09H24.76L39.31 34.47V68.7001ZM48.89 59.53H42.81V33.69C42.8093 33.4473 42.7582 33.2073 42.6601 32.9853C42.562 32.7633 42.419 32.564 42.24 32.4L26.63 18.05C26.3088 17.7533 25.8873 17.589 25.45 17.59H13.08V11.93H34.34L48.89 25.3V59.53ZM56.98 51.11H52.39V24.53C52.3893 24.2873 52.3382 24.0473 52.2401 23.8253C52.142 23.6033 51.999 23.404 51.82 23.24L36.21 8.89001C35.8888 8.59333 35.4673 8.42902 35.03 8.43001H21.17V3.5H42.43L56.98 16.88V51.11Z" fill="white"/>
<path d="M22.5 56.2299C20.8082 56.4175 19.0983 56.1076 17.58 55.3381C16.0616 54.5686 14.8007 53.373 13.9516 51.8977C13.1025 50.4224 12.7021 48.7315 12.7995 47.032C12.8969 45.3326 13.4879 43.6985 14.5 42.3299L14.94 45.6299L18.41 45.1699L17.5 38.3999C17.4435 37.9805 17.2372 37.5956 16.9193 37.3163C16.6014 37.037 16.1932 36.882 15.77 36.8799H9.08001V40.3799H11.6C10.2832 42.2074 9.49581 44.3627 9.32442 46.6087C9.15304 48.8547 9.6043 51.1045 10.6286 53.1107C11.6529 55.1169 13.2105 56.8018 15.1302 57.9801C17.05 59.1585 19.2575 59.7847 21.51 59.7899C21.9711 59.7879 22.4318 59.7612 22.89 59.7099C23.3499 59.6563 23.7699 59.4227 24.058 59.0602C24.3461 58.6977 24.4788 58.2359 24.4273 57.7757C24.3757 57.3156 24.144 56.8946 23.7828 56.6049C23.4216 56.3152 22.9604 56.1804 22.5 56.2299Z" fill="white"/>
<path d="M20.36 35.42C20.1308 35.4364 19.9072 35.4978 19.7017 35.6007C19.4963 35.7035 19.3131 35.8458 19.1627 36.0195C19.0123 36.1931 18.8975 36.3947 18.825 36.6127C18.7525 36.8307 18.7236 37.0608 18.74 37.29C18.7564 37.5192 18.8178 37.7428 18.9207 37.9483C19.0235 38.1537 19.1658 38.3369 19.3395 38.4873C19.5131 38.6377 19.7147 38.7525 19.9327 38.825C20.1507 38.8975 20.3808 38.9264 20.61 38.91C22.2796 38.7886 23.949 39.1486 25.4201 39.9474C26.8912 40.7462 28.1023 41.9503 28.9097 43.4167C29.7172 44.8831 30.087 46.5503 29.9754 48.2206C29.8638 49.8909 29.2754 51.4941 28.28 52.84L27.84 49.54L24.37 50L25.28 56.77C25.3365 57.1894 25.5428 57.5742 25.8607 57.8536C26.1786 58.1329 26.5868 58.2879 27.01 58.29H33.7V54.79H31.18C32.5423 52.9003 33.3372 50.6611 33.4713 48.3353C33.6054 46.0096 33.0731 43.6939 31.9371 41.6601C30.801 39.6263 29.1082 37.9589 27.0576 36.8535C25.0069 35.7482 22.6834 35.2509 20.36 35.42Z" fill="white"/>
</svg>
